<svg aria-hidden="true" style="position: absolute; width: 0; height: 0; overflow: hidden;" version="1.1" xmlns="http://www.w3.org/2000/svg" xmlns:xlink="http://www.w3.org/1999/xlink">
<defs>
<symbol id="icon-life-programs" viewBox="0 0 40 54">
<path fill="#1b63f0" style="fill: var(--color1, #1b63f0)" d="M39.486 43.884l-6.272-13.888c2.128-1.96 3.808-4.424 4.928-7.224 0.28-0.784-0.112-1.68-0.896-2.016s-1.68 0.112-2.016 0.896c-0.784 2.016-1.96 3.864-3.416 5.376l-4.256-9.464c0.672-1.232 1.008-2.576 1.008-4.032 0-4.144-2.912-7.56-6.776-8.4v-2.688c0-0.952-0.784-1.736-1.736-1.736s-1.736 0.784-1.736 1.736v2.688c-3.864 0.84-6.776 4.256-6.776 8.4 0 1.456 0.392 2.856 1.008 4.032l-4.256 9.464c-1.456-1.512-2.576-3.304-3.416-5.376-0.336-0.784-1.176-1.176-2.016-0.896-0.784 0.336-1.176 1.176-0.896 2.016 1.12 2.856 2.8 5.264 4.928 7.224l-6.272 13.888-0.224 7.504c0 0.728 0.392 1.4 1.064 1.736 0.224 0.112 0.504 0.168 0.728 0.168 0.448 0 0.896-0.168 1.232-0.504l5.432-5.152 5.936-13.16c1.68 0.448 3.416 0.728 5.208 0.728s3.528-0.28 5.208-0.728l5.936 13.16 5.432 5.152c0.336 0.336 0.784 0.504 1.232 0.504 0.224 0 0.504-0.056 0.728-0.168 0.672-0.28 1.12-0.952 1.064-1.736l-0.112-7.504zM17.254 21.596l-4.032 8.96c-0.896-0.392-1.736-0.896-2.576-1.456l4.032-8.904c0.784 0.616 1.624 1.064 2.576 1.4zM25.43 20.196l4.032 8.904c-0.784 0.56-1.68 1.064-2.576 1.456l-4.032-8.96c0.952-0.336 1.792-0.784 2.576-1.4zM20.054 8.044c3.024 0 5.488 2.464 5.488 5.488s-2.464 5.488-5.488 5.488c-3.024 0-5.488-2.464-5.488-5.488s2.464-5.488 5.488-5.488zM6.39 45.788l-2.8 2.632 0.112-3.808 5.712-12.656c0.84 0.56 1.68 1.008 2.576 1.4l-5.6 12.432zM20.054 32.068c-1.344 0-2.632-0.168-3.92-0.448l3.92-8.68 3.92 8.68c-1.288 0.28-2.576 0.448-3.92 0.448zM33.718 45.788l-5.6-12.376c0.896-0.392 1.736-0.896 2.576-1.4l5.712 12.6 0.112 3.808-2.8-2.632z"></path>
</symbol>
<symbol id="icon-social" viewBox="0 0 38 54">
<path fill="#1b63f0" style="fill: var(--color1, #1b63f0)" d="M6.764 3.564h29.568c0.84 0 1.568-0.672 1.568-1.568s-0.728-1.512-1.568-1.512h-29.568c-3.416 0-6.216 2.52-6.608 5.824-0.056 0.112-0.056 0.28-0.056 0.448v41.888c0 2.688 2.184 4.872 4.872 4.872h30.296c1.12 0 2.072-0.952 2.072-2.072v-38.584c0-1.12-0.952-2.072-2.072-2.072h-28.504c-1.96 0-3.64-1.68-3.64-3.64s1.68-3.584 3.64-3.584zM6.764 13.868h27.496v36.568h-29.288c-1.008 0-1.792-0.784-1.792-1.792v-35.84c1.008 0.672 2.24 1.064 3.584 1.064z"></path>
<path fill="#1b63f0" style="fill: var(--color1, #1b63f0)" d="M26.084 44.108h-14.224c-0.84 0-1.568 0.672-1.568 1.568s0.672 1.568 1.568 1.568h14.168c0.84 0 1.568-0.672 1.568-1.568s-0.672-1.568-1.512-1.568z"></path>
<path fill="#1b63f0" style="fill: var(--color1, #1b63f0)" d="M10.404 23.78h17.080c0.616 0 1.12-0.504 1.12-1.12v-3.36c0-0.616-0.504-1.12-1.12-1.12h-17.080c-0.616 0-1.12 0.504-1.12 1.12v3.36c0 0.616 0.504 1.12 1.12 1.12z"></path>
</symbol>
<symbol id="icon-certificate" viewBox="0 0 54 54">
<path fill="#1b63f0" style="fill: var(--color1, #1b63f0)" d="M50.983 30.668h-6.272v-23.464c0-3.64-2.968-6.664-6.608-6.664h-0.056c-0.224 0-0.504 0-0.728 0h-27.048c-5.432 0-9.912 4.424-9.912 9.912v3.696c0 1.568 1.288 2.856 2.856 2.856h5.488v25.592c0 2.968 2.408 5.432 5.432 5.432h6.664v3.584c0 0.672 0.392 1.344 1.008 1.624 0.28 0.168 0.56 0.224 0.896 0.224s0.728-0.112 1.008-0.336l3.92-2.632 3.92 2.632c0.56 0.392 1.288 0.392 1.904 0.112 0.616-0.336 1.008-0.952 1.008-1.624v-3.64c0.112 0.056 0.28 0.056 0.392 0.056h12.936c0.224 0 0.392 0 0.56-0.056h0.112c0.112 0 0.28-0.056 0.448-0.056 0.056 0 0.112 0 0.112 0 0.056 0 0.112 0 0.112-0.056 0.112 0 0.168-0.056 0.28-0.056 0.056 0 0.168-0.056 0.224-0.056s0.112 0 0.112-0.056c0.168-0.056 0.336-0.112 0.448-0.168 0.056 0 0.112-0.056 0.112-0.056 0.056 0 0.056-0.056 0.112-0.056 0.168-0.056 0.28-0.168 0.448-0.224 0.112-0.056 0.28-0.168 0.392-0.28 0 0 0.056 0 0.056-0.056l0.112-0.112c0.112-0.112 0.224-0.168 0.336-0.28 0.168-0.168 0.392-0.336 0.504-0.56 0.112-0.112 0.28-0.336 0.392-0.56 0-0.056 0.056-0.056 0.056-0.112s0.056-0.056 0.056-0.112c0-0.056 0.056-0.056 0.056-0.112 0.056-0.112 0.112-0.168 0.168-0.28s0.112-0.224 0.168-0.336c0-0.056 0.056-0.112 0.056-0.168 0.112-0.336 0.224-0.672 0.28-1.008 0.056-0.392 0.112-0.784 0.112-1.232v-8.456c0.224-1.568-1.064-2.856-2.632-2.856zM3.439 10.396c0-3.752 3.080-6.832 6.832-6.832h21.56c-0.784 1.12-1.232 2.52-1.232 3.976v6.272h-27.16v-3.416zM27.575 40.58c-3.304 0-5.992-2.688-5.992-5.992s2.688-5.936 5.992-5.936c3.304 0 5.992 2.688 5.992 5.992s-2.688 5.936-5.992 5.936zM27.575 46.684l-3.752 2.464v-6.272c1.12 0.504 2.408 0.84 3.752 0.84s2.576-0.28 3.752-0.84v6.328l-3.752-2.52zM34.407 44.892v-4.312c1.4-1.568 2.24-3.64 2.24-5.936 0-4.984-4.032-9.072-9.072-9.072-4.984 0-9.072 4.032-9.072 9.072 0 2.24 0.84 4.312 2.24 5.936v4.256h-6.664c-1.288 0-2.352-1.064-2.352-2.352v-25.592h19.040c1.568 0 2.856-1.288 2.856-2.856v-6.44c0-2.072 1.624-3.864 3.696-3.976h0.728c1.96 0 3.584 1.624 3.584 3.584v34.664c0 1.064 0.28 2.128 0.784 3.024h-7.616c-0.168-0.056-0.28-0.056-0.392 0zM50.647 42.428c-0.056 0.168-0.112 0.392-0.168 0.56-0.056 0.112-0.112 0.168-0.112 0.28l-0.112 0.168c-0.056 0.056-0.112 0.168-0.168 0.224l-0.056 0.056c-0.056 0.056-0.112 0.168-0.224 0.224-0.056 0.056-0.112 0.112-0.224 0.168l-0.056 0.056c-0.168 0.112-0.336 0.224-0.504 0.28-0.056 0.056-0.112 0.056-0.168 0.056s-0.112 0.056-0.168 0.056l-0.112 0.056c-0.056 0-0.168 0.056-0.224 0.056h-0.056c-0.056 0-0.168 0.056-0.224 0.056h-0.112c-0.112 0-0.168 0-0.28 0-1.68 0-3.024-1.344-3.024-3.024v-7.952h5.992c0 0 0.056 8.512 0 8.68z"></path>
</symbol>
<symbol id="icon-affordability" viewBox="0 0 44 54">
<path fill="#1b63f0" style="fill: var(--color1, #1b63f0)" d="M4.864 53.022h38.472c0-1.624-7.56-2.968-17.248-3.136v-3.416c0.056 0 0.112 0 0.168 0 9.184-1.12 16.184-8.96 16.184-18.312 0-5.208-2.24-10.192-6.104-13.664-0.448-0.392-0.952-0.784-1.4-1.176l2.408-4.368c0.896-1.624 0.28-3.64-1.344-4.536l-5.488-3.024c-1.624-0.896-3.64-0.28-4.536 1.344l-10.752 19.768c-0.896 1.624-0.28 3.64 1.344 4.536l5.488 3.024c0.504 0.224 1.064 0.336 1.624 0.336 0.336 0 0.616-0.056 0.952-0.112 0.84-0.224 1.568-0.84 1.96-1.624l6.832-12.544c0.28 0.224 0.56 0.448 0.84 0.728 3.192 2.912 5.040 7.056 5.040 11.368 0 7.728-5.824 14.28-13.496 15.176-1.344 0.168-2.688 0.112-4.032-0.056-4.256-0.616-7.952-2.968-10.304-6.44h14.672c0.84 0 1.568-0.672 1.568-1.568s-0.672-1.568-1.512-1.568h-23.968c-0.84 0-1.568 0.672-1.568 1.568s0.672 1.568 1.568 1.568h5.656c2.744 5.096 7.672 8.624 13.496 9.52 0.056 0 0.168 0 0.224 0v3.528c-9.464 0.112-16.744 1.456-16.744 3.080zM23.904 27.206c-0.056 0.056-0.112 0.112-0.168 0.112s-0.112 0-0.168 0l-5.488-3.024c-0.112-0.056-0.168-0.224-0.112-0.336l10.696-19.656c0.056-0.112 0.224-0.168 0.336-0.112l5.488 3.024c0.112 0.056 0.168 0.224 0.112 0.336l-10.696 19.656z"></path>
</symbol>
<symbol id="icon-logo" viewBox="0 0 72 32">
<path d="M16 5.12c6.009 0 10.88 4.871 10.88 10.88 0 6.005-4.865 10.874-10.87 10.88-0.003 0-0.007 0-0.010 0h-0.004c-6.007-0.002-10.876-4.873-10.876-10.88 0-6.009 4.871-10.88 10.88-10.88zM27.731 26.88c2.649-2.855 4.269-6.678 4.269-10.88 0-8.837-7.163-16-16-16s-16 7.163-16 16c0 8.837 7.163 16 16 16 0.004 0 0.008 0 0.013 0h38.802c0.004 0 0.009 0 0.013 0 8.837 0 16-7.163 16-16s-7.163-16-16-16c-8.837 0-16 7.163-16 16 0 4.202 1.62 8.025 4.269 10.88h-15.365zM54.831 26.88h-0.014c-6.004-0.006-10.87-4.875-10.87-10.88 0-6.009 4.871-10.88 10.88-10.88s10.88 4.871 10.88 10.88c0 6.008-4.869 10.878-10.876 10.88z"></path>
</symbol>
<symbol id="icon-arrow-left" viewBox="0 0 8 12">
<path fill="none" stroke="#64be97" style="stroke: var(--color1, #64be97)" stroke-linejoin="round" stroke-linecap="round" stroke-miterlimit="4" stroke-width="1.7143" d="M6.429 11.143l-5.143-5.143 5.143-5.143"></path>
</symbol>
<symbol id="icon-arrow-right" viewBox="0 0 8 12">
<path fill="none" stroke="#64be97" style="stroke: var(--color1, #64be97)" stroke-linejoin="round" stroke-linecap="round" stroke-miterlimit="4" stroke-width="1.7143" d="M1.286 11.143l5.143-5.143-5.143-5.143"></path>
</symbol>
<symbol id="icon-facebook" viewBox="0 0 24 24">
<path d="M18 2H15C13.6739 2 12.4021 2.52678 11.4645 3.46447C10.5268 4.40215 10 5.67392 10 7V10H7V14H10V22H14V14H17L18 10H14V7C14 6.73478 14.1054 6.48043 14.2929 6.29289C14.4804 6.10536 14.7348 6 15 6H18V2Z"/>
</symbol>
<symbol id="icon-gray-calendar" viewBox="0 0 20 20">
<path fill="none" stroke="#838383" style="stroke: var(--color1, #838383)" stroke-linejoin="round" stroke-linecap="round" stroke-miterlimit="4" stroke-width="1.5" d="M15.833 3.333h-11.667c-0.92 0-1.667 0.746-1.667 1.667v11.667c0 0.921 0.746 1.667 1.667 1.667h11.667c0.921 0 1.667-0.746 1.667-1.667v-11.667c0-0.92-0.746-1.667-1.667-1.667z"></path>
<path fill="none" stroke="#838383" style="stroke: var(--color1, #838383)" stroke-linejoin="round" stroke-linecap="round" stroke-miterlimit="4" stroke-width="1.5" d="M13.333 1.667v3.333"></path>
<path fill="none" stroke="#838383" style="stroke: var(--color1, #838383)" stroke-linejoin="round" stroke-linecap="round" stroke-miterlimit="4" stroke-width="1.5" d="M6.667 1.667v3.333"></path>
<path fill="none" stroke="#838383" style="stroke: var(--color1, #838383)" stroke-linejoin="round" stroke-linecap="round" stroke-miterlimit="4" stroke-width="1.5" d="M2.5 8.333h15"></path>
</symbol>
<symbol id="icon-gray-clock" viewBox="0 0 20 20">
<path fill="none" stroke="#838383" style="stroke: var(--color1, #838383)" stroke-linejoin="round" stroke-linecap="round" stroke-miterlimit="4" stroke-width="1.5" d="M10 18.333c4.602 0 8.333-3.731 8.333-8.333s-3.731-8.333-8.333-8.333c-4.602 0-8.333 3.731-8.333 8.333s3.731 8.333 8.333 8.333z"></path>
<path fill="none" stroke="#838383" style="stroke: var(--color1, #838383)" stroke-linejoin="round" stroke-linecap="round" stroke-miterlimit="4" stroke-width="1.5" d="M10 5v5l3.333 1.667"></path>
</symbol>
<symbol id="icon-gray-map-point" viewBox="0 0 20 20">
<path fill="none" stroke="#838383" style="stroke: var(--color1, #838383)" stroke-linejoin="round" stroke-linecap="round" stroke-miterlimit="4" stroke-width="1.5" d="M17.5 8.333c0 5.833-7.5 10.833-7.5 10.833s-7.5-5-7.5-10.833c0-1.989 0.79-3.897 2.197-5.303s3.314-2.197 5.303-2.197c1.989 0 3.897 0.79 5.303 2.197s2.197 3.314 2.197 5.303z"></path>
<path fill="none" stroke="#838383" style="stroke: var(--color1, #838383)" stroke-linejoin="round" stroke-linecap="round" stroke-miterlimit="4" stroke-width="1.5" d="M10 10.833c1.381 0 2.5-1.119 2.5-2.5s-1.119-2.5-2.5-2.5c-1.381 0-2.5 1.119-2.5 2.5s1.119 2.5 2.5 2.5z"></path>
</symbol>
<symbol id="icon-instagram" viewBox="0 0 24 24">
<path d="M17 2H7C4.23858 2 2 4.23858 2 7V17C2 19.7614 4.23858 22 7 22H17C19.7614 22 22 19.7614 22 17V7C22 4.23858 19.7614 2 17 2Z"/>
<path d="M15.9997 11.3701C16.1231 12.2023 15.981 13.0523 15.5935 13.7991C15.206 14.5459 14.5929 15.1515 13.8413 15.5297C13.0898 15.908 12.2382 16.0397 11.4075 15.906C10.5768 15.7723 9.80947 15.3801 9.21455 14.7852C8.61962 14.1903 8.22744 13.4229 8.09377 12.5923C7.96011 11.7616 8.09177 10.91 8.47003 10.1584C8.84829 9.40691 9.45389 8.7938 10.2007 8.4063C10.9475 8.0188 11.7975 7.87665 12.6297 8.00006C13.4786 8.12594 14.2646 8.52152 14.8714 9.12836C15.4782 9.73521 15.8738 10.5211 15.9997 11.3701Z"/>
<path d="M17.5 6.5H17.51"/>
</symbol>
<symbol id="icon-play-triangle" viewBox="0 0 14 18">
<path fill="#fff" style="fill: var(--color1, #fff)" d="M0 0l14 9-14 9v-18z"></path>
</symbol>
<symbol id="icon-quotes" viewBox="0 0 49 39">
<path fill="#3f4c9a" style="fill: var(--color1, #3f4c9a)" d="M15.852 18.003c1.887 0.83 3.359 2.076 4.416 3.736s1.585 3.623 1.585 5.888c0 3.246-1.019 5.888-3.057 7.926-2.038 1.963-4.642 2.944-7.813 2.944s-5.812-1.019-7.926-3.057c-2.038-2.038-3.057-4.642-3.057-7.813 0-1.51 0.189-3.019 0.566-4.529s1.208-3.774 2.491-6.794l6.567-16.305h11.209l-4.982 18.003zM42.573 18.003c1.887 0.83 3.359 2.076 4.416 3.736s1.585 3.623 1.585 5.888c0 3.246-1.019 5.888-3.057 7.926-2.038 1.963-4.642 2.944-7.813 2.944s-5.812-1.019-7.926-3.057c-2.038-2.038-3.057-4.642-3.057-7.813 0-1.51 0.189-3.019 0.566-4.529s1.208-3.774 2.491-6.794l6.567-16.305h11.209l-4.982 18.003z"></path>
</symbol>
<symbol id="icon-star" viewBox="0 0 9 10">
<path d="M7.503 8.986c0.066 0.412-0.372 0.718-0.736 0.516l-1.96-1.088c-0.151-0.084-0.334-0.084-0.485 0l-1.961 1.088c-0.365 0.202-0.802-0.104-0.736-0.516l0.368-2.313c0.025-0.156-0.026-0.315-0.137-0.429l-1.672-1.706c-0.285-0.291-0.121-0.783 0.282-0.844l2.249-0.342c0.166-0.025 0.309-0.133 0.379-0.286l0.952-2.075c0.178-0.389 0.731-0.389 0.909 0l0.952 2.075c0.070 0.153 0.213 0.26 0.379 0.286l2.279 0.347c0.397 0.060 0.565 0.541 0.291 0.835l-1.594 1.712c-0.105 0.113-0.152 0.267-0.128 0.419l0.37 2.321z"></path>
</symbol>
<symbol id="icon-twitter" viewBox="0 0 24 24">
<path d="M23 3.00005C22.0424 3.67552 20.9821 4.19216 19.86 4.53005C19.2577 3.83756 18.4573 3.34674 17.567 3.12397C16.6767 2.90121 15.7395 2.95724 14.8821 3.2845C14.0247 3.61176 13.2884 4.19445 12.773 4.95376C12.2575 5.71308 11.9877 6.61238 12 7.53005V8.53005C10.2426 8.57561 8.50127 8.18586 6.93101 7.39549C5.36074 6.60513 4.01032 5.43868 3 4.00005C3 4.00005 -1 13 8 17C5.94053 18.398 3.48716 19.099 1 19C10 24 21 19 21 7.50005C20.9991 7.2215 20.9723 6.94364 20.92 6.67005C21.9406 5.66354 22.6608 4.39276 23 3.00005Z"/>
</symbol>
<symbol id="icon-white-book-open" viewBox="0 0 32 32">
<path fill="none" stroke="#fff" style="stroke: var(--color3, #fff)" stroke-linejoin="round" stroke-linecap="round" stroke-miterlimit="4" stroke-width="2.6667" d="M2.667 4h8c1.415 0 2.771 0.562 3.771 1.562s1.562 2.357 1.562 3.771v18.667c0-1.061-0.421-2.078-1.172-2.828s-1.768-1.172-2.828-1.172h-9.333v-20z"></path>
<path fill="none" stroke="#fff" style="stroke: var(--color3, #fff)" stroke-linejoin="round" stroke-linecap="round" stroke-miterlimit="4" stroke-width="2.6667" d="M29.333 4h-8c-1.415 0-2.771 0.562-3.771 1.562s-1.562 2.357-1.562 3.771v18.667c0-1.061 0.421-2.078 1.172-2.828s1.768-1.172 2.828-1.172h9.333v-20z"></path>
</symbol>
<symbol id="icon-white-briefcase" viewBox="0 0 32 32">
<path fill="none" stroke="#fff" style="stroke: var(--color3, #fff)" stroke-linejoin="round" stroke-linecap="round" stroke-miterlimit="4" stroke-width="2.6667" d="M26.667 9.333h-21.333c-1.473 0-2.667 1.194-2.667 2.667v13.333c0 1.473 1.194 2.667 2.667 2.667h21.333c1.473 0 2.667-1.194 2.667-2.667v-13.333c0-1.473-1.194-2.667-2.667-2.667z"></path>
<path fill="none" stroke="#fff" style="stroke: var(--color3, #fff)" stroke-linejoin="round" stroke-linecap="round" stroke-miterlimit="4" stroke-width="2.6667" d="M21.333 28v-21.333c0-0.707-0.281-1.386-0.781-1.886s-1.178-0.781-1.886-0.781h-5.333c-0.707 0-1.386 0.281-1.886 0.781s-0.781 1.178-0.781 1.886v21.333"></path>
</symbol>
<symbol id="icon-white-calendar" viewBox="0 0 21 20">
<path fill="none" stroke="#bfbfbf" style="stroke: var(--color2, #bfbfbf)" stroke-linejoin="round" stroke-linecap="round" stroke-miterlimit="4" stroke-width="1.5" d="M16.333 3.333h-11.667c-0.92 0-1.667 0.746-1.667 1.667v11.667c0 0.921 0.746 1.667 1.667 1.667h11.667c0.921 0 1.667-0.746 1.667-1.667v-11.667c0-0.92-0.746-1.667-1.667-1.667z"></path>
<path fill="none" stroke="#bfbfbf" style="stroke: var(--color2, #bfbfbf)" stroke-linejoin="round" stroke-linecap="round" stroke-miterlimit="4" stroke-width="1.5" d="M13.833 1.667v3.333"></path>
<path fill="none" stroke="#bfbfbf" style="stroke: var(--color2, #bfbfbf)" stroke-linejoin="round" stroke-linecap="round" stroke-miterlimit="4" stroke-width="1.5" d="M7.167 1.667v3.333"></path>
<path fill="none" stroke="#bfbfbf" style="stroke: var(--color2, #bfbfbf)" stroke-linejoin="round" stroke-linecap="round" stroke-miterlimit="4" stroke-width="1.5" d="M3 8.333h15"></path>
</symbol>
<symbol id="icon-white-chain" viewBox="0 0 32 32">
<path fill="none" stroke="#fff" style="stroke: var(--color3, #fff)" stroke-linejoin="round" stroke-linecap="round" stroke-miterlimit="4" stroke-width="2.6667" d="M13.333 17.333c0.573 0.765 1.303 1.399 2.142 1.857s1.767 0.731 2.72 0.799c0.953 0.068 1.911-0.069 2.806-0.403s1.709-0.857 2.385-1.533l4-4c1.214-1.257 1.886-2.941 1.871-4.689s-0.716-3.42-1.952-4.656c-1.236-1.236-2.908-1.937-4.656-1.952s-3.432 0.657-4.689 1.871l-2.293 2.28"></path>
<path fill="none" stroke="#fff" style="stroke: var(--color3, #fff)" stroke-linejoin="round" stroke-linecap="round" stroke-miterlimit="4" stroke-width="2.6667" d="M18.667 14.667c-0.573-0.765-1.303-1.399-2.142-1.857s-1.767-0.731-2.72-0.799c-0.954-0.068-1.911 0.069-2.806 0.403s-1.709 0.857-2.385 1.533l-4 4c-1.214 1.257-1.886 2.941-1.871 4.689s0.716 3.42 1.952 4.656c1.236 1.236 2.908 1.937 4.656 1.952s3.432-0.657 4.689-1.871l2.28-2.28"></path>
</symbol>
<symbol id="icon-white-clock" viewBox="0 0 21 20">
<path fill="none" stroke="#bfbfbf" style="stroke: var(--color2, #bfbfbf)" stroke-linejoin="round" stroke-linecap="round" stroke-miterlimit="4" stroke-width="1.5" d="M10.5 18.333c4.602 0 8.333-3.731 8.333-8.333s-3.731-8.333-8.333-8.333c-4.602 0-8.333 3.731-8.333 8.333s3.731 8.333 8.333 8.333z"></path>
<path fill="none" stroke="#bfbfbf" style="stroke: var(--color2, #bfbfbf)" stroke-linejoin="round" stroke-linecap="round" stroke-miterlimit="4" stroke-width="1.5" d="M10.5 5v5l3.333 1.667"></path>
</symbol>
<symbol id="icon-white-comment" viewBox="0 0 32 32">
<path fill="none" stroke="#fff" style="stroke: var(--color3, #fff)" stroke-linejoin="round" stroke-linecap="round" stroke-miterlimit="4" stroke-width="2.6667" d="M28 20c0 0.707-0.281 1.385-0.781 1.886s-1.178 0.781-1.886 0.781h-16l-5.333 5.333v-21.333c0-0.707 0.281-1.386 0.781-1.886s1.178-0.781 1.886-0.781h18.667c0.707 0 1.385 0.281 1.886 0.781s0.781 1.178 0.781 1.886v13.333z"></path>
</symbol>
<symbol id="icon-white-map-point" viewBox="0 0 21 20">
<path fill="none" stroke="#bfbfbf" style="stroke: var(--color2, #bfbfbf)" stroke-linejoin="round" stroke-linecap="round" stroke-miterlimit="4" stroke-width="1.5" d="M18 8.333c0 5.833-7.5 10.833-7.5 10.833s-7.5-5-7.5-10.833c0-1.989 0.79-3.897 2.197-5.303s3.314-2.197 5.303-2.197c1.989 0 3.897 0.79 5.303 2.197s2.197 3.314 2.197 5.303z"></path>
<path fill="none" stroke="#bfbfbf" style="stroke: var(--color2, #bfbfbf)" stroke-linejoin="round" stroke-linecap="round" stroke-miterlimit="4" stroke-width="1.5" d="M10.5 10.833c1.381 0 2.5-1.119 2.5-2.5s-1.119-2.5-2.5-2.5c-1.381 0-2.5 1.119-2.5 2.5s1.119 2.5 2.5 2.5z"></path>
</symbol>
<symbol id="icon-white-pen" viewBox="0 0 32 32">
<path fill="none" stroke="#fff" style="stroke: var(--color3, #fff)" stroke-linejoin="round" stroke-linecap="round" stroke-miterlimit="4" stroke-width="2.6667" d="M16 25.333l9.333-9.333 4 4-9.333 9.333-4-4z"></path>
<path fill="none" stroke="#fff" style="stroke: var(--color3, #fff)" stroke-linejoin="round" stroke-linecap="round" stroke-miterlimit="4" stroke-width="2.6667" d="M24 17.333l-2-10-19.333-4.667 4.667 19.333 10 2 6.667-6.667z"></path>
<path fill="none" stroke="#fff" style="stroke: var(--color3, #fff)" stroke-linejoin="round" stroke-linecap="round" stroke-miterlimit="4" stroke-width="2.6667" d="M2.667 2.667l10.115 10.115"></path>
<path fill="none" stroke="#fff" style="stroke: var(--color3, #fff)" stroke-linejoin="round" stroke-linecap="round" stroke-miterlimit="4" stroke-width="2.6667" d="M14.667 17.333c1.473 0 2.667-1.194 2.667-2.667s-1.194-2.667-2.667-2.667c-1.473 0-2.667 1.194-2.667 2.667s1.194 2.667 2.667 2.667z"></path>
</symbol>
<symbol id="icon-youtube" viewBox="0 0 24 24">
<path d="M22.5396 6.42C22.4208 5.94541 22.1789 5.51057 21.8382 5.15941C21.4976 4.80824 21.0703 4.55318 20.5996 4.42C18.8796 4 11.9996 4 11.9996 4C11.9996 4 5.1196 4 3.3996 4.46C2.92884 4.59318 2.50157 4.84824 2.16094 5.19941C1.82031 5.55057 1.57838 5.98541 1.4596 6.46C1.14481 8.20556 0.990831 9.97631 0.999595 11.75C0.988374 13.537 1.14236 15.3213 1.4596 17.08C1.59055 17.5398 1.8379 17.9581 2.17774 18.2945C2.51758 18.6308 2.93842 18.8738 3.3996 19C5.1196 19.46 11.9996 19.46 11.9996 19.46C11.9996 19.46 18.8796 19.46 20.5996 19C21.0703 18.8668 21.4976 18.6118 21.8382 18.2606C22.1789 17.9094 22.4208 17.4746 22.5396 17C22.852 15.2676 23.0059 13.5103 22.9996 11.75C23.0108 9.96295 22.8568 8.1787 22.5396 6.42V6.42Z"/>
<path d="M9.75 15.02L15.5 11.75L9.75 8.47998V15.02Z"/>
</symbol>
<symbol id="icon-youfone" viewBox="0 0 143 40">
<path d="M73.8273 5.99154H75.804C78.278 5.99154 78.24 2.10581 78.24 2.10581C78.24 2.10581 72.3154 1.91057 71.6919 2.05051C69.3174 2.21867 67.2401 4.17903 67.2401 7.65621V27.7993C67.2401 30 71.7913 30 71.7913 30V16.1071H74.681C77.1293 16.1071 77.1628 12.429 77.1628 12.429H71.7913V8.40221C71.7913 6.41928 72.3154 5.99154 73.8273 5.99154Z"/>
<path d="M6.95668 12.968L7.65909 17.9149C8.29476 22.4608 10.6864 24.1823 10.7225 24.1823C10.6864 24.1823 13.2554 22.2773 13.8188 17.9149L14.4534 13.0033C14.8418 10.0365 19.2401 9.99991 19.2401 9.99991L18.4643 17.2552C17.937 22.0586 15.0158 25.6862 12.9053 27.3712L11.5311 28.4718C9.27944 30.305 7.51904 31.8431 7.51904 34.2983C7.51904 35.6928 8.01357 36.9358 8.25865 37.4884C7.65909 37.8153 7.0267 37.9999 6.39322 37.9999C4.74005 37.9999 3.15581 36.79 3.15581 33.895C3.15581 30.5602 5.40745 28.6176 8.04749 26.6033C5.79476 25.2099 3.47309 21.506 3.01686 17.2552L2.24005 9.99991C2.24005 9.99991 6.53436 9.92602 6.95668 12.968Z"/>
<path d="M34.6553 17.0873C34.6553 14.8241 33.9864 13.5264 30.7395 13.5264C27.4948 13.5264 26.8248 14.8241 26.8248 17.0873V22.9138C26.8248 25.1782 27.4948 26.4759 30.7395 26.4759C33.9864 26.4759 34.6553 25.1782 34.6553 22.9138V17.0873ZM39.2401 23.471C39.2401 27.5522 36.5239 30 30.7395 30C24.9551 30 22.2401 27.5522 22.2401 23.471V16.5302C22.2401 12.4513 24.9551 10 30.7395 10C36.5239 10 39.2401 12.4513 39.2401 16.5302V23.471Z"/>
<path d="M50.1412 22.5977C50.1412 24.4829 51.0833 25.5505 53.7606 25.5505C55.6809 25.5505 57.3401 25.0515 57.3401 25.0515V10C57.3401 10 62.2401 10 62.2401 12.3122V29C62.2401 29 60.7708 28.2543 58.848 28.2543C57.0003 28.2543 55.2673 29 53.2321 29C49.3503 29 45.2401 27.7565 45.2401 23.1321V10C45.2401 10 50.1412 10.0697 50.1412 12.3122V22.5977Z"/>
<path d="M92.6551 17.0873C92.6551 14.8241 91.9831 13.5264 88.7401 13.5264C85.496 13.5264 84.8272 14.8241 84.8272 17.0873V22.9138C84.8272 25.1782 85.496 26.4759 88.7401 26.4759C91.9831 26.4759 92.6551 25.1782 92.6551 22.9138V17.0873ZM97.2401 23.471C97.2401 27.5522 94.5244 30 88.7401 30C82.9568 30 80.2401 27.5522 80.2401 23.471V16.5302C80.2401 12.4513 82.9568 10 88.7401 10C94.5244 10 97.2401 12.4513 97.2401 16.5302V23.471Z"/>
<path d="M114.341 16.4049C114.341 14.5188 113.396 13.4513 110.721 13.4513C108.801 13.4513 107.142 13.9502 107.142 13.9502V29C107.142 29 102.24 29 102.24 26.6881V10C102.24 10 103.71 10.7456 105.634 10.7456C107.481 10.7456 109.215 10 111.249 10C115.133 10 119.24 11.2434 119.24 15.8706V29C119.24 29 114.341 28.9303 114.341 26.6881V16.4049Z"/>
<path d="M127.273 18.1631C127.661 18.2392 129.017 18.4976 130.175 18.4976C132.965 18.4976 133.935 17.644 133.935 16.1595C133.935 14.6035 133.042 13.525 130.642 13.525C128.01 13.525 127.273 14.8238 127.273 17.0881V18.1631ZM122.24 23.4702V16.5309C122.24 12.4511 125.259 10 130.798 10C136.336 10 138.969 12.4511 138.969 16.1595C138.969 19.3131 137.033 22.2441 130.914 22.2441C129.673 22.2441 128.434 22.0238 127.273 21.5762V22.9131C127.273 25.137 128.666 26.2893 131.574 26.2893C135.406 26.2893 138.001 24.7321 138.04 22.5048C138.851 23.6167 139.24 24.6202 139.24 25.5488C139.24 28.219 136.026 30 131.574 30C125.686 30 122.24 27.5523 122.24 23.4702Z"/>
</symbol>
<symbol id="icon-microsoft" viewBox="0 0 188 40">
<g clip-path="url(#clip0_3118_439)">
<path d="M187.24 18.0998V14.8126H183.158V9.70225L183.021 9.74457L179.186 10.9177L179.111 10.9406V14.8128H173.059V12.6557C173.059 11.6512 173.284 10.8826 173.726 10.37C174.166 9.86354 174.795 9.60606 175.597 9.60606C176.173 9.60606 176.77 9.74185 177.37 10.0096L177.521 10.0769V6.61503L177.45 6.589C176.89 6.38757 176.128 6.28613 175.183 6.28613C173.992 6.28613 172.911 6.54524 171.967 7.05875C171.023 7.57299 170.28 8.30709 169.76 9.24045C169.242 10.1727 168.979 11.2495 168.979 12.441V14.8126H166.136V18.0998H168.979V31.9482H173.059V18.0998H179.111V26.9002C179.111 30.5246 180.82 32.3613 184.192 32.3613C184.746 32.3613 185.329 32.2964 185.925 32.1693C186.531 32.0388 186.944 31.9084 187.187 31.7692L187.24 31.7373V28.4198L187.074 28.5295C186.853 28.6771 186.577 28.7977 186.254 28.8874C185.929 28.9787 185.658 29.0244 185.448 29.0244C184.658 29.0244 184.073 28.8116 183.711 28.3916C183.344 27.9677 183.158 27.2266 183.158 26.1898V18.0998H187.24ZM157.024 29.025C155.543 29.025 154.375 28.5339 153.552 27.5665C152.724 26.5943 152.305 25.2081 152.305 23.447C152.305 21.63 152.724 20.2079 153.553 19.2185C154.376 18.2356 155.533 17.7367 156.991 17.7367C158.406 17.7367 159.532 18.2132 160.339 19.1536C161.149 20.0989 161.561 21.5096 161.561 23.3478C161.561 25.2085 161.174 26.6378 160.411 27.594C159.653 28.5429 158.514 29.025 157.024 29.025ZM157.205 14.3998C154.38 14.3998 152.136 15.2278 150.535 16.8607C148.936 18.4938 148.125 20.7538 148.125 23.5785C148.125 26.2614 148.917 28.4194 150.478 29.9916C152.039 31.5643 154.164 32.361 156.792 32.361C159.531 32.361 161.731 31.5215 163.33 29.8659C164.93 28.2122 165.74 25.9735 165.74 23.2149C165.74 20.49 164.979 18.3159 163.479 16.7542C161.978 15.1918 159.867 14.3998 157.205 14.3998ZM141.547 14.3998C139.624 14.3998 138.035 14.8914 136.82 15.8608C135.598 16.8359 134.978 18.1148 134.978 19.6624C134.978 20.4668 135.112 21.1814 135.375 21.7875C135.64 22.3956 136.05 22.931 136.595 23.3803C137.135 23.826 137.969 24.2929 139.075 24.7679C140.004 25.1503 140.697 25.4738 141.138 25.7287C141.568 25.9786 141.873 26.2297 142.046 26.4744C142.214 26.7138 142.299 27.0414 142.299 27.4457C142.299 28.597 141.436 29.1571 139.662 29.1571C139.004 29.1571 138.254 29.0197 137.432 28.7489C136.615 28.4821 135.845 28.0914 135.147 27.5906L134.978 27.469V31.3976L135.04 31.4265C135.617 31.693 136.345 31.9178 137.203 32.0946C138.06 32.2717 138.838 32.3617 139.514 32.3617C141.599 32.3617 143.279 31.8677 144.504 30.8926C145.738 29.9108 146.363 28.6017 146.363 27.0006C146.363 25.8455 146.026 24.855 145.363 24.0562C144.704 23.2639 143.561 22.5364 141.967 21.8935C140.696 21.3836 139.882 20.9603 139.547 20.6354C139.223 20.3215 139.059 19.8776 139.059 19.3154C139.059 18.8171 139.261 18.4179 139.678 18.0946C140.097 17.7696 140.682 17.6044 141.414 17.6044C142.094 17.6044 142.79 17.7118 143.482 17.9222C144.173 18.1327 144.78 18.4146 145.287 18.7594L145.454 18.8733V15.1467L145.39 15.1193C144.922 14.9187 144.305 14.7471 143.556 14.6079C142.811 14.4696 142.135 14.3998 141.547 14.3998ZM124.341 29.025C122.86 29.025 121.692 28.5339 120.869 27.5665C120.041 26.5943 119.622 25.2085 119.622 23.447C119.622 21.63 120.042 20.2079 120.87 19.2185C121.693 18.2356 122.849 17.7367 124.308 17.7367C125.722 17.7367 126.849 18.2132 127.656 19.1536C128.467 20.0989 128.878 21.5096 128.878 23.3478C128.878 25.2085 128.491 26.6378 127.728 27.594C126.97 28.5429 125.831 29.025 124.341 29.025ZM124.523 14.3998C121.696 14.3998 119.452 15.2278 117.853 16.8607C116.254 18.4938 115.442 20.7538 115.442 23.5785C115.442 26.2625 116.234 28.4194 117.795 29.9916C119.356 31.5643 121.481 32.361 124.109 32.361C126.848 32.361 129.048 31.5215 130.648 29.8659C132.247 28.2122 133.057 25.9735 133.057 23.2149C133.057 20.49 132.297 18.3159 130.796 16.7542C129.295 15.1918 127.184 14.3998 124.523 14.3998ZM109.248 17.7801V14.8126H105.218V31.9478H109.248V23.1825C109.248 21.692 109.586 20.4676 110.253 19.5427C110.911 18.6289 111.789 18.1658 112.86 18.1658C113.223 18.1658 113.63 18.2257 114.072 18.3441C114.509 18.4618 114.825 18.5896 115.012 18.7242L115.181 18.8469V14.7833L115.116 14.7553C114.74 14.5958 114.209 14.5153 113.537 14.5153C112.525 14.5153 111.618 14.8408 110.842 15.4816C110.16 16.0449 109.668 16.8171 109.291 17.7801H109.248ZM97.9992 14.3998C96.15 14.3998 94.5007 14.7963 93.0977 15.578C91.6919 16.3615 90.6047 17.48 89.8649 18.9023C89.1285 20.3211 88.7546 21.9784 88.7546 23.8267C88.7546 25.4457 89.1171 26.9315 89.8337 28.2409C90.5506 29.5526 91.5653 30.5787 92.8498 31.2904C94.1325 32.0012 95.615 32.3615 97.2564 32.3615C99.172 32.3615 100.807 31.9786 102.119 31.2233L102.172 31.1929V27.5001L102.002 27.6238C101.408 28.0565 100.745 28.4019 100.03 28.6507C99.3179 28.8993 98.6684 29.025 98.0989 29.025C96.5173 29.025 95.2476 28.5301 94.326 27.5544C93.4024 26.5775 92.9341 25.2056 92.9341 23.4794C92.9341 21.7423 93.4225 20.3352 94.3849 19.297C95.3445 18.2618 96.6165 17.7367 98.1654 17.7367C99.4902 17.7367 100.781 18.1853 102.003 19.0713L102.172 19.1941V15.3032L102.117 15.2724C101.657 15.0151 101.031 14.8027 100.252 14.6416C99.4774 14.4808 98.7194 14.3998 97.9992 14.3998ZM85.9785 14.8128H81.9478V31.9478H85.9785V14.8128ZM84.0044 7.51314C83.341 7.51314 82.7624 7.73897 82.287 8.18649C81.8097 8.63527 81.5676 9.20031 81.5676 9.86716C81.5676 10.5235 81.8068 11.0782 82.2796 11.5151C82.7494 11.9507 83.3298 12.1715 84.0046 12.1715C84.6792 12.1715 85.2618 11.9507 85.7371 11.5158C86.2156 11.0782 86.4582 10.5237 86.4582 9.86716C86.4582 9.22364 86.2221 8.66438 85.7569 8.20457C85.292 7.74566 84.7022 7.51314 84.0044 7.51314ZM73.9475 13.5485V31.9478H78.061V8.03768H72.3677L65.1312 25.7974L58.1086 8.03768H52.1835V31.9476H56.0491V13.5467H56.1818L63.5975 31.9478H66.5148L73.8148 13.5485H73.9475Z"/>
<path d="M19.2858 19.0092H0.324158V0.0476074H19.2858V19.0092Z"/>
<path d="M40.2215 19.0092H21.2603V0.0476074H40.2215V19.0092Z"/>
<path d="M19.2852 39.9524H0.324158V20.991H19.2852V39.9524Z"/>
<path d="M40.2215 39.9524H21.2603V20.991H40.2215V39.9524Z"/>
</g>
<defs>
<clipPath id="clip0_3118_439">
<rect width="186.916" height="40" fill="white" transform="translate(0.324158)"/>
</clipPath>
</defs>
</symbol>
<symbol id="icon-google" viewBox="0 0 123 40">
<g clip-path="url(#clip0_3118_455)">
<path d="M15.0682 0.0202637H16.1556C19.9305 0.102328 23.6439 1.62051 26.311 4.3081C25.3262 5.31339 24.3209 6.27764 23.3567 7.28292C21.859 5.92887 20.0536 4.88255 18.0841 4.51326C15.1708 3.89778 12.0319 4.45172 9.59047 6.11351C6.92339 7.85737 5.11799 10.8117 4.72818 13.9711C4.29735 17.0896 5.17954 20.3721 7.21062 22.793C9.15964 25.1523 12.1345 26.6295 15.2119 26.7321C18.0841 26.8962 21.0794 26.014 23.1721 24.0034C24.8133 22.5878 25.5724 20.4337 25.8186 18.341C22.413 18.341 19.0073 18.3615 15.6017 18.341V14.1147H29.9423C30.6809 18.6488 29.6141 23.7573 26.1674 26.9988C23.8696 29.2966 20.6896 30.6506 17.4481 30.9173C14.3091 31.2251 11.0676 30.6301 8.27745 29.1119C4.93334 27.327 2.26627 24.3112 0.953243 20.7619C-0.277716 17.4999 -0.298232 13.807 0.850663 10.5244C1.89698 7.52911 3.90754 4.88255 6.49256 3.03611C8.97499 1.21019 11.9908 0.204907 15.0682 0.0202637Z"/>
<path d="M97.3373 1.08716H101.728V30.384C100.271 30.384 98.794 30.4045 97.3373 30.3635C97.3579 20.6184 97.3373 10.8528 97.3373 1.08716Z"/>
<path d="M39.7079 11.2425C42.416 10.7296 45.3498 11.3041 47.5861 12.9248C49.6172 14.361 51.0328 16.6177 51.4636 19.0796C52.0175 21.9314 51.32 25.0498 49.4735 27.3066C47.4835 29.83 44.2215 31.1841 41.0415 30.9789C38.1282 30.8148 35.297 29.3582 33.5737 26.9783C31.6246 24.3523 31.1528 20.7414 32.2196 17.664C33.2864 14.361 36.3023 11.8375 39.7079 11.2425ZM40.3234 15.1406C39.2156 15.4278 38.1898 16.0638 37.4512 16.9665C35.4611 19.3464 35.5842 23.2239 37.7794 25.4396C39.0309 26.7116 40.9184 27.3066 42.6622 26.9578C44.283 26.6706 45.6986 25.5832 46.4782 24.1471C47.8323 21.7057 47.4425 18.3411 45.3703 16.4331C44.0368 15.2021 42.0878 14.6892 40.3234 15.1406Z"/>
<path d="M61.4549 11.2426C64.5528 10.6476 67.9379 11.5093 70.2562 13.684C74.0312 17.0691 74.4415 23.4086 71.2205 27.3066C69.2715 29.7685 66.112 31.1226 62.9936 30.979C60.0188 30.8969 57.085 29.4197 55.3206 26.9783C53.3305 24.2907 52.8997 20.5979 54.0281 17.4589C55.1565 14.2584 58.1108 11.817 61.4549 11.2426ZM62.0704 15.1406C60.9625 15.4278 59.9367 16.0638 59.1981 16.946C57.2286 19.2848 57.3106 23.1008 59.4238 25.3371C60.6753 26.6706 62.6243 27.3271 64.4297 26.9578C66.0299 26.6501 67.4661 25.5833 68.2457 24.1471C69.5792 21.6852 69.1894 18.3206 67.0968 16.4126C65.7632 15.1817 63.8142 14.6893 62.0704 15.1406Z"/>
<path d="M79.8987 12.4324C82.2581 10.9553 85.397 10.5449 87.941 11.8169C88.7411 12.1657 89.3976 12.7607 90.0336 13.3556C90.0541 12.8017 90.0336 12.2273 90.0541 11.6528C91.4287 11.6733 92.8033 11.6528 94.1984 11.6733V29.7684C94.1778 32.497 93.4803 35.3898 91.5108 37.3798C89.3566 39.5751 86.0535 40.2521 83.0787 39.8007C79.8987 39.3289 77.1291 37.0106 75.8981 34.0768C77.1291 33.4818 78.4216 33.0099 79.6936 32.456C80.4116 34.1383 81.8683 35.5744 83.6942 35.9027C85.5201 36.231 87.6332 35.7796 88.8232 34.2614C90.0952 32.7022 90.0952 30.5685 90.0336 28.6606C89.0899 29.5838 88.0025 30.4044 86.6895 30.7122C83.8378 31.5123 80.6988 30.5275 78.5036 28.599C76.2879 26.6705 74.9749 23.6957 75.098 20.7414C75.1595 17.3973 77.047 14.1763 79.8987 12.4324ZM84.1455 15.0585C82.8941 15.2636 81.7246 15.9612 80.9245 16.9254C78.996 19.2232 78.996 22.8956 80.945 25.1523C82.0529 26.4859 83.8378 27.2244 85.5611 27.0398C87.1819 26.8757 88.6796 25.8499 89.4797 24.4343C90.8337 22.0339 90.6081 18.7719 88.7821 16.6792C87.6538 15.3867 85.8484 14.7507 84.1455 15.0585Z"/>
<path d="M107 13.4788C109.462 11.1811 113.258 10.4014 116.417 11.6119C119.413 12.7403 121.321 15.592 122.285 18.5258C117.833 20.3722 113.401 22.1981 108.949 24.0446C109.565 25.214 110.509 26.2808 111.781 26.7117C113.565 27.3476 115.699 27.122 117.197 25.932C117.792 25.4807 118.264 24.8857 118.715 24.3113C119.843 25.0704 120.972 25.8089 122.1 26.568C120.5 28.9684 117.812 30.6507 114.92 30.9174C111.719 31.3072 108.313 30.0763 106.241 27.5733C102.836 23.6343 103.164 17.0281 107 13.4788ZM109.196 17.2743C108.498 18.2796 108.211 19.5105 108.231 20.721C111.206 19.49 114.181 18.2591 117.156 17.0076C116.663 15.8587 115.473 15.1612 114.263 14.9765C112.314 14.6277 110.283 15.6741 109.196 17.2743Z"/>
</g>
<defs>
<clipPath id="clip0_3118_455">
<rect width="122.324" height="40" fill="white"/>
</clipPath>
</defs>
</symbol>
</defs>
</svg>
