<svg xmlns="http://www.w3.org/2000/svg" xmlns:xlink="http://www.w3.org/1999/xlink" viewBox="0 0 64 64" width="64px" height="64px">
<g id="icon-favicon">
<path style=" stroke:none;fill-rule:nonzero;fill:rgb(39.215687%,74.509805%,59.215689%);fill-opacity:1;" d="M 54.5 15.125 C 50.449219 9.726562 44.488281 5.84375 37.625 4.4375 L 37.625 40.4375 L 46.0625 34.8125 L 54.5 40.4375 Z M 54.5 15.125 "/>
<path style=" stroke:none;fill-rule:nonzero;fill:rgb(98.039216%,98.039216%,98.039216%);fill-opacity:1;" d="M 32 61.8125 C 15.574219 61.8125 2.1875 48.425781 2.1875 32 C 2.1875 15.574219 15.574219 2.1875 32 2.1875 C 32.957031 2.1875 33.6875 2.917969 33.6875 3.875 C 33.6875 4.832031 32.957031 5.5625 32 5.5625 C 17.429688 5.5625 5.5625 17.429688 5.5625 32 C 5.5625 46.570312 17.429688 58.4375 32 58.4375 C 46.570312 58.4375 58.4375 46.570312 58.4375 32 C 58.4375 23.617188 54.554688 15.914062 47.863281 10.851562 C 47.132812 10.289062 46.960938 9.21875 47.523438 8.488281 C 48.085938 7.757812 49.15625 7.585938 49.886719 8.148438 C 57.480469 13.832031 61.8125 22.550781 61.8125 32 C 61.8125 48.425781 48.425781 61.8125 32 61.8125 Z M 32 61.8125 "/>
<path style=" stroke:none;fill-rule:nonzero;fill:rgb(98.039216%,98.039216%,98.039216%);fill-opacity:1;" d="M 32 33.6875 C 31.71875 33.6875 31.4375 33.632812 31.210938 33.460938 C 30.648438 33.179688 30.3125 32.617188 30.3125 32 L 30.3125 3.875 C 30.3125 2.917969 31.042969 2.1875 32 2.1875 C 32.957031 2.1875 33.6875 2.917969 33.6875 3.875 L 33.6875 28.851562 L 39.480469 24.96875 C 40.042969 24.574219 40.773438 24.574219 41.335938 24.96875 L 44.039062 26.769531 C 44.824219 27.273438 45.050781 28.34375 44.488281 29.132812 C 43.980469 29.917969 42.914062 30.144531 42.125 29.582031 L 40.4375 28.398438 L 32.957031 33.40625 C 32.675781 33.574219 32.335938 33.6875 32 33.6875 Z M 48.875 33.6875 C 48.761719 33.6875 48.648438 33.6875 48.539062 33.632812 C 48.425781 33.632812 48.3125 33.574219 48.199219 33.519531 C 48.085938 33.460938 48.03125 33.40625 47.917969 33.351562 C 47.804688 33.292969 47.75 33.238281 47.636719 33.125 C 47.582031 33.070312 47.46875 32.957031 47.414062 32.84375 C 47.355469 32.730469 47.300781 32.675781 47.242188 32.5625 C 47.1875 32.449219 47.1875 32.335938 47.132812 32.226562 C 47.132812 32.113281 47.074219 32 47.074219 31.886719 C 47.074219 31.773438 47.074219 31.664062 47.132812 31.550781 C 47.132812 31.4375 47.1875 31.324219 47.242188 31.210938 C 47.300781 31.101562 47.355469 31.042969 47.414062 30.929688 C 47.46875 30.820312 47.523438 30.761719 47.636719 30.648438 C 48.03125 30.257812 48.59375 30.085938 49.15625 30.199219 C 49.269531 30.199219 49.382812 30.257812 49.492188 30.3125 C 49.605469 30.367188 49.71875 30.425781 49.773438 30.480469 C 49.886719 30.539062 49.945312 30.59375 50.054688 30.707031 C 50.113281 30.761719 50.226562 30.875 50.28125 30.988281 C 50.335938 31.101562 50.394531 31.15625 50.449219 31.269531 C 50.507812 31.382812 50.507812 31.492188 50.5625 31.605469 C 50.5625 31.71875 50.617188 31.832031 50.617188 31.945312 C 50.617188 32.054688 50.617188 32.167969 50.5625 32.28125 C 50.5625 32.394531 50.507812 32.507812 50.449219 32.617188 C 50.394531 32.730469 50.335938 32.84375 50.28125 32.898438 C 50.226562 33.011719 50.167969 33.070312 50.054688 33.179688 C 49.773438 33.519531 49.324219 33.6875 48.875 33.6875 Z M 48.875 27.5 C 47.917969 27.5 47.1875 26.769531 47.1875 25.8125 L 47.1875 9.5 C 47.1875 8.542969 47.917969 7.8125 48.875 7.8125 C 49.832031 7.8125 50.5625 8.542969 50.5625 9.5 L 50.5625 25.8125 C 50.5625 26.769531 49.832031 27.5 48.875 27.5 Z M 48.875 27.5 "/>
</g>
</svg>