<svg id="background-green" width="786" height="597" viewBox="0 0 786 597" fill="none" xmlns="http://www.w3.org/2000/svg">
<path d="M282.045 596.785C429.045 596.785 785.045 563 785.045 446.785C785.045 378.785 712.955 334 649 314.785C579.508 293.906 428.045 276.785 428.045 246.785C428.045 216.785 483.045 14.7847 301.045 0.784733C119.045 -13.2153 -7.95544 162.785 -10.9554 314.785C-13.9554 466.785 135.045 596.785 282.045 596.785Z" fill="#D6FAE7"/>
<path opacity="0.4" d="M539.401 251.934C501.401 40.9341 336.401 6.93399 216.401 41.934C96.4007 77.934 40.9121 161.323 30.4014 270.934C16.4012 416.934 108.401 531.934 257.401 552.934C406.401 573.934 577.401 462.934 539.401 251.934Z" fill="#A8E2C7"/>
</svg>