<svg width="44" height="54" viewBox="0 0 44 54" fill="none" xmlns="http://www.w3.org/2000/svg">
<path d="M4.864 53.0222H43.336C43.336 51.3982 35.776 50.0542 26.088 49.8862V46.4702C26.144 46.4702 26.2 46.4702 26.256 46.4702C35.44 45.3502 42.44 37.5102 42.44 28.1582C42.44 22.9502 40.2 17.9662 36.336 14.4942C35.888 14.1022 35.384 13.7102 34.936 13.3182L37.344 8.9502C38.24 7.3262 37.624 5.3102 36 4.4142L30.512 1.3902C28.888 0.494195 26.872 1.1102 25.976 2.7342L15.224 22.5022C14.328 24.1262 14.944 26.1422 16.568 27.0382L22.056 30.0622C22.56 30.2862 23.12 30.3982 23.68 30.3982C24.016 30.3982 24.296 30.3422 24.632 30.2862C25.472 30.0622 26.2 29.4462 26.592 28.6622L33.424 16.1182C33.704 16.3422 33.984 16.5662 34.264 16.8462C37.456 19.7582 39.304 23.9022 39.304 28.2142C39.304 35.9422 33.48 42.4942 25.808 43.3902C24.464 43.5582 23.12 43.5022 21.776 43.3342C17.52 42.7182 13.824 40.3662 11.472 36.8942H26.144C26.984 36.8942 27.712 36.2222 27.712 35.3262C27.712 34.4302 27.04 33.7582 26.2 33.7582H2.232C1.392 33.7582 0.664001 34.4302 0.664001 35.3262C0.664001 36.2222 1.336 36.8942 2.232 36.8942H7.888C10.632 41.9902 15.56 45.5182 21.384 46.4142C21.44 46.4142 21.552 46.4142 21.608 46.4142V49.9422C12.144 50.0542 4.864 51.3982 4.864 53.0222ZM23.904 27.2062C23.848 27.2622 23.792 27.3182 23.736 27.3182C23.68 27.3182 23.624 27.3182 23.568 27.3182L18.08 24.2942C17.968 24.2382 17.912 24.0702 17.968 23.9582L28.664 4.3022C28.72 4.1902 28.888 4.1342 29 4.1902L34.488 7.2142C34.6 7.2702 34.656 7.4382 34.6 7.5502L23.904 27.2062Z" fill="#1B63F0"/>
</svg>
