<svg width="54" height="54" viewBox="0 0 54 54" fill="none" xmlns="http://www.w3.org/2000/svg">
<path d="M50.9833 30.668H44.7113V7.20404C44.7113 3.56404 41.7433 0.540039 38.1033 0.540039H38.0473C37.8233 0.540039 37.5433 0.540039 37.3193 0.540039H32.1113H10.2713C4.83928 0.540039 0.359283 4.96404 0.359283 10.452V14.148C0.359283 15.716 1.64728 17.004 3.21528 17.004H8.70328V42.596C8.70328 45.564 11.1113 48.028 14.1353 48.028H20.7993V51.612C20.7993 52.284 21.1913 52.956 21.8073 53.236C22.0873 53.404 22.3673 53.4601 22.7033 53.4601C23.0393 53.4601 23.4313 53.3481 23.7113 53.1241L27.6313 50.492L31.5513 53.1241C32.1113 53.5161 32.8393 53.516 33.4553 53.236C34.0713 52.9 34.4633 52.284 34.4633 51.612V47.972C34.5753 48.028 34.7433 48.028 34.8553 48.028H47.7913C48.0153 48.028 48.1833 48.028 48.3513 47.972H48.4073H48.4633C48.5753 47.972 48.7433 47.916 48.9113 47.916C48.9673 47.916 49.0233 47.916 49.0233 47.916C49.0793 47.916 49.1353 47.916 49.1353 47.86C49.2473 47.86 49.3033 47.8041 49.4153 47.8041C49.4713 47.8041 49.5833 47.748 49.6393 47.748C49.6953 47.748 49.7513 47.748 49.7513 47.692C49.9193 47.636 50.0873 47.5801 50.1993 47.5241C50.2553 47.5241 50.3113 47.468 50.3113 47.468C50.3673 47.468 50.3673 47.412 50.4233 47.412C50.5913 47.356 50.7033 47.244 50.8713 47.188C50.9833 47.132 51.1513 47.02 51.2633 46.908C51.2633 46.908 51.3193 46.908 51.3193 46.852L51.3753 46.796L51.4313 46.74C51.5433 46.628 51.6553 46.572 51.7673 46.46C51.9353 46.292 52.1593 46.124 52.2713 45.9C52.3833 45.788 52.5513 45.564 52.6633 45.34C52.6633 45.284 52.7193 45.284 52.7193 45.228C52.7193 45.172 52.7753 45.172 52.7753 45.116C52.7753 45.06 52.8313 45.06 52.8313 45.004C52.8873 44.892 52.9433 44.836 52.9993 44.724C53.0553 44.612 53.1113 44.5 53.1673 44.388C53.1673 44.332 53.2233 44.276 53.2233 44.22C53.3353 43.884 53.4473 43.548 53.5033 43.212C53.5593 42.82 53.6153 42.428 53.6153 41.98V33.524C53.8393 31.956 52.5513 30.668 50.9833 30.668ZM3.43928 10.396C3.43928 6.64404 6.51928 3.56404 10.2713 3.56404H31.8313C31.0473 4.68404 30.5993 6.08404 30.5993 7.54004V13.812H3.43928V10.396ZM27.5753 40.58C24.2713 40.58 21.5833 37.892 21.5833 34.588C21.5833 31.284 24.2713 28.652 27.5753 28.652C30.8793 28.652 33.5673 31.34 33.5673 34.644C33.5673 37.948 30.8793 40.58 27.5753 40.58ZM27.5753 46.684L23.8233 49.148V42.876C24.9433 43.38 26.2313 43.716 27.5753 43.716C28.9193 43.716 30.1513 43.436 31.3273 42.876V49.2041L27.5753 46.684ZM34.4073 44.892V40.58C35.8073 39.012 36.6473 36.94 36.6473 34.644C36.6473 29.66 32.6153 25.572 27.5753 25.572C22.5913 25.572 18.5033 29.604 18.5033 34.644C18.5033 36.884 19.3433 38.956 20.7433 40.58V44.836H14.0793C12.7913 44.836 11.7273 43.772 11.7273 42.484V16.892H30.7673C32.3353 16.892 33.6233 15.604 33.6233 14.036V7.59604C33.6233 5.52404 35.2473 3.73204 37.3193 3.62004H38.0473C40.0073 3.62004 41.6313 5.24404 41.6313 7.20404V41.868C41.6313 42.932 41.9113 43.996 42.4153 44.892H34.7993C34.6313 44.836 34.5193 44.836 34.4073 44.892ZM50.6473 42.428C50.5913 42.596 50.5353 42.82 50.4793 42.988C50.4233 43.1 50.3673 43.156 50.3673 43.268L50.2553 43.436C50.1993 43.492 50.1433 43.604 50.0873 43.66L50.0313 43.716C49.9753 43.772 49.9193 43.884 49.8073 43.94C49.7513 43.996 49.6953 44.052 49.5833 44.108L49.5273 44.164C49.3593 44.276 49.1913 44.388 49.0233 44.444C48.9673 44.5 48.9113 44.5 48.8553 44.5C48.7993 44.5 48.7433 44.556 48.6873 44.556L48.5753 44.612C48.5193 44.612 48.4073 44.668 48.3513 44.668H48.2953C48.2393 44.668 48.1273 44.724 48.0713 44.724H47.9593C47.8473 44.724 47.7913 44.724 47.6793 44.724C45.9993 44.724 44.6553 43.38 44.6553 41.7V33.748H50.6473C50.6473 33.748 50.7033 42.26 50.6473 42.428Z" fill="#1B63F0"/>
</svg>
