<svg width="40" height="54" viewBox="0 0 40 54" fill="none" xmlns="http://www.w3.org/2000/svg">
<path d="M39.4856 43.884L33.2136 29.996C35.3416 28.036 37.0216 25.572 38.1416 22.772C38.4216 21.988 38.0296 21.092 37.2456 20.756C36.4616 20.42 35.5656 20.868 35.2296 21.652C34.4456 23.668 33.2696 25.516 31.8136 27.028L27.5576 17.564C28.2296 16.332 28.5656 14.988 28.5656 13.532C28.5656 9.38801 25.6536 5.97201 21.7896 5.13201V2.44401C21.7896 1.49201 21.0056 0.708008 20.0536 0.708008C19.1016 0.708008 18.3176 1.49201 18.3176 2.44401V5.13201C14.4536 5.97201 11.5416 9.38801 11.5416 13.532C11.5416 14.988 11.9336 16.388 12.5496 17.564L8.29364 27.028C6.83764 25.516 5.71764 23.724 4.87764 21.652C4.54164 20.868 3.70164 20.476 2.86164 20.756C2.07764 21.092 1.68564 21.932 1.96564 22.772C3.08564 25.628 4.76564 28.036 6.89364 29.996L0.621641 43.884L0.39764 51.388C0.39764 52.116 0.78964 52.788 1.46164 53.124C1.68564 53.236 1.96564 53.292 2.18964 53.292C2.63764 53.292 3.08564 53.124 3.42164 52.788L8.85364 47.636L14.7896 34.476C16.4696 34.924 18.2056 35.204 19.9976 35.204C21.7896 35.204 23.5256 34.924 25.2056 34.476L31.1416 47.636L36.5736 52.788C36.9096 53.124 37.3576 53.292 37.8056 53.292C38.0296 53.292 38.3096 53.236 38.5336 53.124C39.2056 52.844 39.6536 52.172 39.5976 51.388L39.4856 43.884ZM17.2536 21.596L13.2216 30.556C12.3256 30.164 11.4856 29.66 10.6456 29.1L14.6776 20.196C15.4616 20.812 16.3016 21.26 17.2536 21.596ZM25.4296 20.196L29.4616 29.1C28.6776 29.66 27.7816 30.164 26.8856 30.556L22.8536 21.596C23.8056 21.26 24.6456 20.812 25.4296 20.196ZM20.0536 8.04401C23.0776 8.04401 25.5416 10.508 25.5416 13.532C25.5416 16.556 23.0776 19.02 20.0536 19.02C17.0296 19.02 14.5656 16.556 14.5656 13.532C14.5656 10.508 17.0296 8.04401 20.0536 8.04401ZM6.38964 45.788L3.58964 48.42L3.70164 44.612L9.41364 31.956C10.2536 32.516 11.0936 32.964 11.9896 33.356L6.38964 45.788ZM20.0536 32.068C18.7096 32.068 17.4216 31.9 16.1336 31.62L20.0536 22.94L23.9736 31.62C22.6856 31.9 21.3976 32.068 20.0536 32.068ZM33.7176 45.788L28.1176 33.412C29.0136 33.02 29.8536 32.516 30.6936 32.012L36.4056 44.612L36.5176 48.42L33.7176 45.788Z" fill="#1B63F0"/>
</svg>
