<svg width="54" height="24" viewBox="0 0 54 24" fill="none" xmlns="http://www.w3.org/2000/svg">
<path fill-rule="evenodd" clip-rule="evenodd" d="M12 3.84C7.49335 3.84 3.84 7.49336 3.84 12C3.84 16.5056 7.49168 20.1583 11.9969 20.16H12C12.0026 20.16 12.0052 20.16 12.0078 20.16C16.5109 20.1558 20.16 16.504 20.16 12C20.16 7.49336 16.5066 3.84 12 3.84ZM20.7986 20.16C22.7853 18.0188 24 15.1513 24 12C24 5.37258 18.6274 0 12 0C5.37258 0 0 5.37258 0 12C0 18.6274 5.37258 24 12 24C12.0032 24 12.0063 24 12.0095 24H41.1111C41.1143 24 41.1175 24 41.1206 24C47.748 24 53.1206 18.6274 53.1206 12C53.1206 5.37258 47.748 0 41.1206 0C34.4932 0 29.1206 5.37258 29.1206 12C29.1206 15.1513 30.3353 18.0188 32.322 20.16H20.7986ZM41.1235 20.16L41.12 20.16H41.1128C36.6098 20.1558 32.9606 16.504 32.9606 12C32.9606 7.49336 36.614 3.84 41.1206 3.84C45.6273 3.84 49.2806 7.49336 49.2806 12C49.2806 16.5057 45.6288 20.1584 41.1235 20.16Z" fill="#1B63F0"/>
</svg>
