<svg width="39" height="31" viewBox="0 0 39 31" fill="none" xmlns="http://www.w3.org/2000/svg">
<path d="M12.6 14.31C14.1 14.97 15.27 15.96 16.11 17.28C16.95 18.6 17.37 20.16 17.37 21.96C17.37 24.54 16.56 26.64 14.94 28.26C13.32 29.82 11.25 30.6 8.73 30.6C6.21 30.6 4.11 29.79 2.43 28.17C0.81 26.55 0 24.48 0 21.96C0 20.76 0.15 19.56 0.45 18.36C0.75 17.16 1.41 15.36 2.43 12.96L7.65 0H16.56L12.6 14.31ZM33.84 14.31C35.34 14.97 36.51 15.96 37.35 17.28C38.19 18.6 38.61 20.16 38.61 21.96C38.61 24.54 37.8 26.64 36.18 28.26C34.56 29.82 32.49 30.6 29.97 30.6C27.45 30.6 25.35 29.79 23.67 28.17C22.05 26.55 21.24 24.48 21.24 21.96C21.24 20.76 21.39 19.56 21.69 18.36C21.99 17.16 22.65 15.36 23.67 12.96L28.89 0H37.8L33.84 14.31Z" fill="#3F4C9A"/>
</svg>
