<svg aria-hidden="true" style="position: absolute; width: 0; height: 0; overflow: hidden;" version="1.1" xmlns="http://www.w3.org/2000/svg" xmlns:xlink="http://www.w3.org/1999/xlink">
<defs>
<symbol id="icon-life-programs" viewBox="0 0 40 54">
<path fill="#1b63f0" style="fill: var(--color1, #1b63f0)" d="M39.486 43.884l-6.272-13.888c2.128-1.96 3.808-4.424 4.928-7.224 0.28-0.784-0.112-1.68-0.896-2.016s-1.68 0.112-2.016 0.896c-0.784 2.016-1.96 3.864-3.416 5.376l-4.256-9.464c0.672-1.232 1.008-2.576 1.008-4.032 0-4.144-2.912-7.56-6.776-8.4v-2.688c0-0.952-0.784-1.736-1.736-1.736s-1.736 0.784-1.736 1.736v2.688c-3.864 0.84-6.776 4.256-6.776 8.4 0 1.456 0.392 2.856 1.008 4.032l-4.256 9.464c-1.456-1.512-2.576-3.304-3.416-5.376-0.336-0.784-1.176-1.176-2.016-0.896-0.784 0.336-1.176 1.176-0.896 2.016 1.12 2.856 2.8 5.264 4.928 7.224l-6.272 13.888-0.224 7.504c0 0.728 0.392 1.4 1.064 1.736 0.224 0.112 0.504 0.168 0.728 0.168 0.448 0 0.896-0.168 1.232-0.504l5.432-5.152 5.936-13.16c1.68 0.448 3.416 0.728 5.208 0.728s3.528-0.28 5.208-0.728l5.936 13.16 5.432 5.152c0.336 0.336 0.784 0.504 1.232 0.504 0.224 0 0.504-0.056 0.728-0.168 0.672-0.28 1.12-0.952 1.064-1.736l-0.112-7.504zM17.254 21.596l-4.032 8.96c-0.896-0.392-1.736-0.896-2.576-1.456l4.032-8.904c0.784 0.616 1.624 1.064 2.576 1.4zM25.43 20.196l4.032 8.904c-0.784 0.56-1.68 1.064-2.576 1.456l-4.032-8.96c0.952-0.336 1.792-0.784 2.576-1.4zM20.054 8.044c3.024 0 5.488 2.464 5.488 5.488s-2.464 5.488-5.488 5.488c-3.024 0-5.488-2.464-5.488-5.488s2.464-5.488 5.488-5.488zM6.39 45.788l-2.8 2.632 0.112-3.808 5.712-12.656c0.84 0.56 1.68 1.008 2.576 1.4l-5.6 12.432zM20.054 32.068c-1.344 0-2.632-0.168-3.92-0.448l3.92-8.68 3.92 8.68c-1.288 0.28-2.576 0.448-3.92 0.448zM33.718 45.788l-5.6-12.376c0.896-0.392 1.736-0.896 2.576-1.4l5.712 12.6 0.112 3.808-2.8-2.632z"></path>
</symbol>
<symbol id="icon-social" viewBox="0 0 38 54">
<path fill="#1b63f0" style="fill: var(--color1, #1b63f0)" d="M6.764 3.564h29.568c0.84 0 1.568-0.672 1.568-1.568s-0.728-1.512-1.568-1.512h-29.568c-3.416 0-6.216 2.52-6.608 5.824-0.056 0.112-0.056 0.28-0.056 0.448v41.888c0 2.688 2.184 4.872 4.872 4.872h30.296c1.12 0 2.072-0.952 2.072-2.072v-38.584c0-1.12-0.952-2.072-2.072-2.072h-28.504c-1.96 0-3.64-1.68-3.64-3.64s1.68-3.584 3.64-3.584zM6.764 13.868h27.496v36.568h-29.288c-1.008 0-1.792-0.784-1.792-1.792v-35.84c1.008 0.672 2.24 1.064 3.584 1.064z"></path>
</symbol>
<symbol id="icon-certificate" viewBox="0 0 54 54">
<path fill="#1b63f0" style="fill: var(--color1, #1b63f0)" d="M50.983 30.668h-6.272v-23.464c0-3.64-2.968-6.664-6.608-6.664h-0.056c-0.224 0-0.504 0-0.728 0h-27.048c-5.432 0-9.912 4.424-9.912 9.912v3.696c0 1.568 1.288 2.856 2.856 2.856h5.488v25.592c0 2.968 2.408 5.432 5.432 5.432h6.664v3.584c0 0.672 0.392 1.344 1.008 1.624 0.28 0.168 0.56 0.224 0.896 0.224s0.728-0.112 1.008-0.336l3.92-2.632 3.92 2.632c0.56 0.392 1.288 0.392 1.904 0.112 0.616-0.336 1.008-0.952 1.008-1.624v-3.64c0.112 0.056 0.28 0.056 0.392 0.056h12.936c0.224 0 0.392 0 0.56-0.056h0.112c0.112 0 0.28-0.056 0.448-0.056 0.056 0 0.112 0 0.112 0 0.056 0 0.112 0 0.112-0.056 0.112 0 0.168-0.056 0.28-0.056 0.056 0 0.168-0.056 0.224-0.056s0.112 0 0.112-0.056c0.168-0.056 0.336-0.112 0.448-0.168 0.056 0 0.112-0.056 0.112-0.056 0.056 0 0.056-0.056 0.112-0.056 0.168-0.056 0.28-0.168 0.448-0.224 0.112-0.056 0.28-0.168 0.392-0.28 0 0 0.056 0 0.056-0.056l0.112-0.112c0.112-0.112 0.224-0.168 0.336-0.28 0.168-0.168 0.392-0.336 0.504-0.56 0.112-0.112 0.28-0.336 0.392-0.56 0-0.056 0.056-0.056 0.056-0.112s0.056-0.056 0.056-0.112c0-0.056 0.056-0.056 0.056-0.112 0.056-0.112 0.112-0.168 0.168-0.28s0.112-0.224 0.168-0.336c0-0.056 0.056-0.112 0.056-0.168 0.112-0.336 0.224-0.672 0.28-1.008 0.056-0.392 0.112-0.784 0.112-1.232v-8.456c0.224-1.568-1.064-2.856-2.632-2.856zM3.439 10.396c0-3.752 3.080-6.832 6.832-6.832h21.56c-0.784 1.12-1.232 2.52-1.232 3.976v6.272h-27.16v-3.416zM27.575 40.58c-3.304 0-5.992-2.688-5.992-5.992s2.688-5.936 5.992-5.936c3.304 0 5.992 2.688 5.992 5.992s-2.688 5.936-5.992 5.936zM27.575 46.684l-3.752 2.464v-6.272c1.12 0.504 2.408 0.84 3.752 0.84s2.576-0.28 3.752-0.84v6.328l-3.752-2.52zM34.407 44.892v-4.312c1.4-1.568 2.24-3.64 2.24-5.936 0-4.984-4.032-9.072-9.072-9.072-4.984 0-9.072 4.032-9.072 9.072 0 2.24 0.84 4.312 2.24 5.936v4.256h-6.664c-1.288 0-2.352-1.064-2.352-2.352v-25.592h19.040c1.568 0 2.856-1.288 2.856-2.856v-6.44c0-2.072 1.624-3.864 3.696-3.976h0.728c1.96 0 3.584 1.624 3.584 3.584v34.664c0 1.064 0.28 2.128 0.784 3.024h-7.616c-0.168-0.056-0.28-0.056-0.392 0zM50.647 42.428c-0.056 0.168-0.112 0.392-0.168 0.56-0.056 0.112-0.112 0.168-0.112 0.28l-0.112 0.168c-0.056 0.056-0.112 0.168-0.168 0.224l-0.056 0.056c-0.056 0.056-0.112 0.168-0.224 0.224-0.056 0.056-0.112 0.112-0.224 0.168l-0.056 0.056c-0.168 0.112-0.336 0.224-0.504 0.28-0.056 0.056-0.112 0.056-0.168 0.056s-0.112 0.056-0.168 0.056l-0.112 0.056c-0.056 0-0.168 0.056-0.224 0.056h-0.056c-0.056 0-0.168 0.056-0.224 0.056h-0.112c-0.112 0-0.168 0-0.28 0-1.68 0-3.024-1.344-3.024-3.024v-7.952h5.992c0 0 0.056 8.512 0 8.68z"></path>
</symbol>
<symbol id="icon-affordability" viewBox="0 0 44 54">
<path fill="#1b63f0" style="fill: var(--color1, #1b63f0)" d="M4.864 53.022h38.472c0-1.624-7.56-2.968-17.248-3.136v-3.416c0.056 0 0.112 0 0.168 0 9.184-1.12 16.184-8.96 16.184-18.312 0-5.208-2.24-10.192-6.104-13.664-0.448-0.392-0.952-0.784-1.4-1.176l2.408-4.368c0.896-1.624 0.28-3.64-1.344-4.536l-5.488-3.024c-1.624-0.896-3.64-0.28-4.536 1.344l-10.752 19.768c-0.896 1.624-0.28 3.64 1.344 4.536l5.488 3.024c0.504 0.224 1.064 0.336 1.624 0.336 0.336 0 0.616-0.056 0.952-0.112 0.84-0.224 1.568-0.84 1.96-1.624l6.832-12.544c0.28 0.224 0.56 0.448 0.84 0.728 3.192 2.912 5.040 7.056 5.040 11.368 0 7.728-5.824 14.28-13.496 15.176-1.344 0.168-2.688 0.112-4.032-0.056-4.256-0.616-7.952-2.968-10.304-6.44h14.672c0.84 0 1.568-0.672 1.568-1.568s-0.672-1.568-1.512-1.568h-23.968c-0.84 0-1.568 0.672-1.568 1.568s0.672 1.568 1.568 1.568h5.656c2.744 5.096 7.672 8.624 13.496 9.52 0.056 0 0.168 0 0.224 0v3.528c-9.464 0.112-16.744 1.456-16.744 3.080zM23.904 27.206c-0.056 0.056-0.112 0.112-0.168 0.112s-0.112 0-0.168 0l-5.488-3.024c-0.112-0.056-0.168-0.224-0.112-0.336l10.696-19.656c0.056-0.112 0.224-0.168 0.336-0.112l5.488 3.024c0.112 0.056 0.168 0.224 0.112 0.336l-10.696 19.656z"></path>
</symbol>
<symbol id="icon-logo" viewBox="0 0 72 32">
<path fill="#1b63f0" style="fill: var(--color1, #1b63f0)" d="M16 5.12c6.009 0 10.88 4.871 10.88 10.88 0 6.005-4.865 10.874-10.87 10.88-0.003 0-0.007 0-0.010 0h-0.004c-6.007-0.002-10.876-4.873-10.876-10.88 0-6.009 4.871-10.88 10.88-10.88zM27.731 26.88c2.649-2.855 4.269-6.678 4.269-10.88 0-8.837-7.163-16-16-16s-16 7.163-16 16c0 8.837 7.163 16 16 16 0.004 0 0.008 0 0.013 0h38.802c0.004 0 0.009 0 0.013 0 8.837 0 16-7.163 16-16s-7.163-16-16-16c-8.837 0-16 7.163-16 16 0 4.202 1.62 8.025 4.269 10.88h-15.365zM54.831 26.88h-0.014c-6.004-0.006-10.87-4.875-10.87-10.88 0-6.009 4.871-10.88 10.88-10.88s10.88 4.871 10.88 10.88c0 6.008-4.869 10.878-10.876 10.88z"></path>
</symbol>
<symbol id="icon-arrow-left" viewBox="0 0 8 12">
<path fill="none" stroke="#64be97" style="stroke: var(--color1, #64be97)" stroke-linejoin="round" stroke-linecap="round" stroke-miterlimit="4" stroke-width="1.7143" d="M6.429 11.143l-5.143-5.143 5.143-5.143"></path>
</symbol>
<symbol id="icon-arrow-right" viewBox="0 0 8 12">
<path fill="none" stroke="#64be97" style="stroke: var(--color1, #64be97)" stroke-linejoin="round" stroke-linecap="round" stroke-miterlimit="4" stroke-width="1.7143" d="M1.286 11.143l5.143-5.143-5.143-5.143"></path>
</symbol>
<!--  -->
<symbol id="icon-facebook" viewBox="0 0 24 24">
<path fill="none" d="M18 2H15C13.6739 2 12.4021 2.52678 11.4645 3.46447C10.5268 4.40215 10 5.67392 10 7V10H7V14H10V22H14V14H17L18 10H14V7C14 6.73478 14.1054 6.48043 14.2929 6.29289C14.4804 6.10536 14.7348 6 15 6H18V2Z" stroke="#25282B" stroke-width="2" stroke-linecap="round" stroke-linejoin="round"/>
</symbol>
<symbol id="icon-gray-calendar" viewBox="0 0 20 20">
<path fill="none" stroke="#838383" style="stroke: var(--color1, #838383)" stroke-linejoin="round" stroke-linecap="round" stroke-miterlimit="4" stroke-width="1.5" d="M15.833 3.333h-11.667c-0.92 0-1.667 0.746-1.667 1.667v11.667c0 0.921 0.746 1.667 1.667 1.667h11.667c0.921 0 1.667-0.746 1.667-1.667v-11.667c0-0.92-0.746-1.667-1.667-1.667z"></path>
<path fill="none" stroke="#838383" style="stroke: var(--color1, #838383)" stroke-linejoin="round" stroke-linecap="round" stroke-miterlimit="4" stroke-width="1.5" d="M13.333 1.667v3.333"></path>
<path fill="none" stroke="#838383" style="stroke: var(--color1, #838383)" stroke-linejoin="round" stroke-linecap="round" stroke-miterlimit="4" stroke-width="1.5" d="M6.667 1.667v3.333"></path>
<path fill="none" stroke="#838383" style="stroke: var(--color1, #838383)" stroke-linejoin="round" stroke-linecap="round" stroke-miterlimit="4" stroke-width="1.5" d="M2.5 8.333h15"></path>
</symbol>
<symbol id="icon-gray-clock" viewBox="0 0 20 20">
<path fill="none" stroke="#838383" style="stroke: var(--color1, #838383)" stroke-linejoin="round" stroke-linecap="round" stroke-miterlimit="4" stroke-width="1.5" d="M10 18.333c4.602 0 8.333-3.731 8.333-8.333s-3.731-8.333-8.333-8.333c-4.602 0-8.333 3.731-8.333 8.333s3.731 8.333 8.333 8.333z"></path>
<path fill="none" stroke="#838383" style="stroke: var(--color1, #838383)" stroke-linejoin="round" stroke-linecap="round" stroke-miterlimit="4" stroke-width="1.5" d="M10 5v5l3.333 1.667"></path>
</symbol>
<symbol id="icon-gray-map-point" viewBox="0 0 20 20">
<path fill="none" stroke="#838383" style="stroke: var(--color1, #838383)" stroke-linejoin="round" stroke-linecap="round" stroke-miterlimit="4" stroke-width="1.5" d="M17.5 8.333c0 5.833-7.5 10.833-7.5 10.833s-7.5-5-7.5-10.833c0-1.989 0.79-3.897 2.197-5.303s3.314-2.197 5.303-2.197c1.989 0 3.897 0.79 5.303 2.197s2.197 3.314 2.197 5.303z"></path>
<path fill="none" stroke="#838383" style="stroke: var(--color1, #838383)" stroke-linejoin="round" stroke-linecap="round" stroke-miterlimit="4" stroke-width="1.5" d="M10 10.833c1.381 0 2.5-1.119 2.5-2.5s-1.119-2.5-2.5-2.5c-1.381 0-2.5 1.119-2.5 2.5s1.119 2.5 2.5 2.5z"></path>
</symbol>
<symbol id="icon-instagram" viewBox="0 0 24 24">
<path fill="none" d="M17 2H7C4.23858 2 2 4.23858 2 7V17C2 19.7614 4.23858 22 7 22H17C19.7614 22 22 19.7614 22 17V7C22 4.23858 19.7614 2 17 2Z" stroke="#25282B" stroke-width="2" stroke-linecap="round" stroke-linejoin="round"/>
<path fill="none" d="M15.9997 11.3701C16.1231 12.2023 15.981 13.0523 15.5935 13.7991C15.206 14.5459 14.5929 15.1515 13.8413 15.5297C13.0898 15.908 12.2382 16.0397 11.4075 15.906C10.5768 15.7723 9.80947 15.3801 9.21455 14.7852C8.61962 14.1903 8.22744 13.4229 8.09377 12.5923C7.96011 11.7616 8.09177 10.91 8.47003 10.1584C8.84829 9.40691 9.45389 8.7938 10.2007 8.4063C10.9475 8.0188 11.7975 7.87665 12.6297 8.00006C13.4786 8.12594 14.2646 8.52152 14.8714 9.12836C15.4782 9.73521 15.8738 10.5211 15.9997 11.3701Z" stroke="#25282B" stroke-width="2" stroke-linecap="round" stroke-linejoin="round"/>
<path fill="none" d="M17.5 6.5H17.51" stroke="#25282B" stroke-width="2" stroke-linecap="round" stroke-linejoin="round"/>
</symbol>
<symbol id="icon-play-triangle" viewBox="0 0 14 18">
<path fill="#fff" style="fill: var(--color1, #fff)" d="M0 0l14 9-14 9v-18z"></path>
</symbol>
<symbol id="icon-quotes" viewBox="0 0 49 39">
<path fill="#3f4c9a" style="fill: var(--color1, #3f4c9a)" d="M15.852 18.003c1.887 0.83 3.359 2.076 4.416 3.736s1.585 3.623 1.585 5.888c0 3.246-1.019 5.888-3.057 7.926-2.038 1.963-4.642 2.944-7.813 2.944s-5.812-1.019-7.926-3.057c-2.038-2.038-3.057-4.642-3.057-7.813 0-1.51 0.189-3.019 0.566-4.529s1.208-3.774 2.491-6.794l6.567-16.305h11.209l-4.982 18.003zM42.573 18.003c1.887 0.83 3.359 2.076 4.416 3.736s1.585 3.623 1.585 5.888c0 3.246-1.019 5.888-3.057 7.926-2.038 1.963-4.642 2.944-7.813 2.944s-5.812-1.019-7.926-3.057c-2.038-2.038-3.057-4.642-3.057-7.813 0-1.51 0.189-3.019 0.566-4.529s1.208-3.774 2.491-6.794l6.567-16.305h11.209l-4.982 18.003z"></path>
</symbol>
<symbol id="icon-star" viewBox="0 0 9 10">
<path fill="#fdd22f" style="fill: var(--color1, #fdd22f)" d="M7.503 8.986c0.066 0.412-0.372 0.718-0.736 0.516l-1.96-1.088c-0.151-0.084-0.334-0.084-0.485 0l-1.961 1.088c-0.365 0.202-0.802-0.104-0.736-0.516l0.368-2.313c0.025-0.156-0.026-0.315-0.137-0.429l-1.672-1.706c-0.285-0.291-0.121-0.783 0.282-0.844l2.249-0.342c0.166-0.025 0.309-0.133 0.379-0.286l0.952-2.075c0.178-0.389 0.731-0.389 0.909 0l0.952 2.075c0.070 0.153 0.213 0.26 0.379 0.286l2.279 0.347c0.397 0.060 0.565 0.541 0.291 0.835l-1.594 1.712c-0.105 0.113-0.152 0.267-0.128 0.419l0.37 2.321z"></path>
</symbol>
<symbol id="icon-twitter" viewBox="0 0 24 24">
<path fill="none" d="M23 3.00005C22.0424 3.67552 20.9821 4.19216 19.86 4.53005C19.2577 3.83756 18.4573 3.34674 17.567 3.12397C16.6767 2.90121 15.7395 2.95724 14.8821 3.2845C14.0247 3.61176 13.2884 4.19445 12.773 4.95376C12.2575 5.71308 11.9877 6.61238 12 7.53005V8.53005C10.2426 8.57561 8.50127 8.18586 6.93101 7.39549C5.36074 6.60513 4.01032 5.43868 3 4.00005C3 4.00005 -1 13 8 17C5.94053 18.398 3.48716 19.099 1 19C10 24 21 19 21 7.50005C20.9991 7.2215 20.9723 6.94364 20.92 6.67005C21.9406 5.66354 22.6608 4.39276 23 3.00005Z" stroke="#25282B" stroke-width="2" stroke-linecap="round" stroke-linejoin="round"/>
</symbol>
<symbol id="icon-white-book-open" viewBox="0 0 32 32">
<path fill="none" stroke="#fff" style="stroke: var(--color3, #fff)" stroke-linejoin="round" stroke-linecap="round" stroke-miterlimit="4" stroke-width="2.6667" d="M2.667 4h8c1.415 0 2.771 0.562 3.771 1.562s1.562 2.357 1.562 3.771v18.667c0-1.061-0.421-2.078-1.172-2.828s-1.768-1.172-2.828-1.172h-9.333v-20z"></path>
<path fill="none" stroke="#fff" style="stroke: var(--color3, #fff)" stroke-linejoin="round" stroke-linecap="round" stroke-miterlimit="4" stroke-width="2.6667" d="M29.333 4h-8c-1.415 0-2.771 0.562-3.771 1.562s-1.562 2.357-1.562 3.771v18.667c0-1.061 0.421-2.078 1.172-2.828s1.768-1.172 2.828-1.172h9.333v-20z"></path>
</symbol>
<symbol id="icon-white-briefcase" viewBox="0 0 32 32">
<path fill="none" stroke="#fff" style="stroke: var(--color3, #fff)" stroke-linejoin="round" stroke-linecap="round" stroke-miterlimit="4" stroke-width="2.6667" d="M26.667 9.333h-21.333c-1.473 0-2.667 1.194-2.667 2.667v13.333c0 1.473 1.194 2.667 2.667 2.667h21.333c1.473 0 2.667-1.194 2.667-2.667v-13.333c0-1.473-1.194-2.667-2.667-2.667z"></path>
<path fill="none" stroke="#fff" style="stroke: var(--color3, #fff)" stroke-linejoin="round" stroke-linecap="round" stroke-miterlimit="4" stroke-width="2.6667" d="M21.333 28v-21.333c0-0.707-0.281-1.386-0.781-1.886s-1.178-0.781-1.886-0.781h-5.333c-0.707 0-1.386 0.281-1.886 0.781s-0.781 1.178-0.781 1.886v21.333"></path>
</symbol>
<symbol id="icon-white-calendar" viewBox="0 0 21 20">
<path fill="none" stroke="#bfbfbf" style="stroke: var(--color2, #bfbfbf)" stroke-linejoin="round" stroke-linecap="round" stroke-miterlimit="4" stroke-width="1.5" d="M16.333 3.333h-11.667c-0.92 0-1.667 0.746-1.667 1.667v11.667c0 0.921 0.746 1.667 1.667 1.667h11.667c0.921 0 1.667-0.746 1.667-1.667v-11.667c0-0.92-0.746-1.667-1.667-1.667z"></path>
<path fill="none" stroke="#bfbfbf" style="stroke: var(--color2, #bfbfbf)" stroke-linejoin="round" stroke-linecap="round" stroke-miterlimit="4" stroke-width="1.5" d="M13.833 1.667v3.333"></path>
<path fill="none" stroke="#bfbfbf" style="stroke: var(--color2, #bfbfbf)" stroke-linejoin="round" stroke-linecap="round" stroke-miterlimit="4" stroke-width="1.5" d="M7.167 1.667v3.333"></path>
<path fill="none" stroke="#bfbfbf" style="stroke: var(--color2, #bfbfbf)" stroke-linejoin="round" stroke-linecap="round" stroke-miterlimit="4" stroke-width="1.5" d="M3 8.333h15"></path>
</symbol>
<symbol id="icon-white-chain" viewBox="0 0 32 32">
<path fill="none" stroke="#fff" style="stroke: var(--color3, #fff)" stroke-linejoin="round" stroke-linecap="round" stroke-miterlimit="4" stroke-width="2.6667" d="M13.333 17.333c0.573 0.765 1.303 1.399 2.142 1.857s1.767 0.731 2.72 0.799c0.953 0.068 1.911-0.069 2.806-0.403s1.709-0.857 2.385-1.533l4-4c1.214-1.257 1.886-2.941 1.871-4.689s-0.716-3.42-1.952-4.656c-1.236-1.236-2.908-1.937-4.656-1.952s-3.432 0.657-4.689 1.871l-2.293 2.28"></path>
<path fill="none" stroke="#fff" style="stroke: var(--color3, #fff)" stroke-linejoin="round" stroke-linecap="round" stroke-miterlimit="4" stroke-width="2.6667" d="M18.667 14.667c-0.573-0.765-1.303-1.399-2.142-1.857s-1.767-0.731-2.72-0.799c-0.954-0.068-1.911 0.069-2.806 0.403s-1.709 0.857-2.385 1.533l-4 4c-1.214 1.257-1.886 2.941-1.871 4.689s0.716 3.42 1.952 4.656c1.236 1.236 2.908 1.937 4.656 1.952s3.432-0.657 4.689-1.871l2.28-2.28"></path>
</symbol>
<symbol id="icon-white-clock" viewBox="0 0 21 20">
<path fill="none" stroke="#bfbfbf" style="stroke: var(--color2, #bfbfbf)" stroke-linejoin="round" stroke-linecap="round" stroke-miterlimit="4" stroke-width="1.5" d="M10.5 18.333c4.602 0 8.333-3.731 8.333-8.333s-3.731-8.333-8.333-8.333c-4.602 0-8.333 3.731-8.333 8.333s3.731 8.333 8.333 8.333z"></path>
<path fill="none" stroke="#bfbfbf" style="stroke: var(--color2, #bfbfbf)" stroke-linejoin="round" stroke-linecap="round" stroke-miterlimit="4" stroke-width="1.5" d="M10.5 5v5l3.333 1.667"></path>
</symbol>
<symbol id="icon-white-comment" viewBox="0 0 32 32">
<path fill="none" stroke="#fff" style="stroke: var(--color3, #fff)" stroke-linejoin="round" stroke-linecap="round" stroke-miterlimit="4" stroke-width="2.6667" d="M28 20c0 0.707-0.281 1.385-0.781 1.886s-1.178 0.781-1.886 0.781h-16l-5.333 5.333v-21.333c0-0.707 0.281-1.386 0.781-1.886s1.178-0.781 1.886-0.781h18.667c0.707 0 1.385 0.281 1.886 0.781s0.781 1.178 0.781 1.886v13.333z"></path>
</symbol>
<symbol id="icon-white-map-point" viewBox="0 0 21 20">
<path fill="none" stroke="#bfbfbf" style="stroke: var(--color2, #bfbfbf)" stroke-linejoin="round" stroke-linecap="round" stroke-miterlimit="4" stroke-width="1.5" d="M18 8.333c0 5.833-7.5 10.833-7.5 10.833s-7.5-5-7.5-10.833c0-1.989 0.79-3.897 2.197-5.303s3.314-2.197 5.303-2.197c1.989 0 3.897 0.79 5.303 2.197s2.197 3.314 2.197 5.303z"></path>
<path fill="none" stroke="#bfbfbf" style="stroke: var(--color2, #bfbfbf)" stroke-linejoin="round" stroke-linecap="round" stroke-miterlimit="4" stroke-width="1.5" d="M10.5 10.833c1.381 0 2.5-1.119 2.5-2.5s-1.119-2.5-2.5-2.5c-1.381 0-2.5 1.119-2.5 2.5s1.119 2.5 2.5 2.5z"></path>
</symbol>
<symbol id="icon-white-pen" viewBox="0 0 32 32">
<path fill="none" stroke="#fff" style="stroke: var(--color3, #fff)" stroke-linejoin="round" stroke-linecap="round" stroke-miterlimit="4" stroke-width="2.6667" d="M16 25.333l9.333-9.333 4 4-9.333 9.333-4-4z"></path>
<path fill="none" stroke="#fff" style="stroke: var(--color3, #fff)" stroke-linejoin="round" stroke-linecap="round" stroke-miterlimit="4" stroke-width="2.6667" d="M24 17.333l-2-10-19.333-4.667 4.667 19.333 10 2 6.667-6.667z"></path>
<path fill="none" stroke="#fff" style="stroke: var(--color3, #fff)" stroke-linejoin="round" stroke-linecap="round" stroke-miterlimit="4" stroke-width="2.6667" d="M2.667 2.667l10.115 10.115"></path>
<path fill="none" stroke="#fff" style="stroke: var(--color3, #fff)" stroke-linejoin="round" stroke-linecap="round" stroke-miterlimit="4" stroke-width="2.6667" d="M14.667 17.333c1.473 0 2.667-1.194 2.667-2.667s-1.194-2.667-2.667-2.667c-1.473 0-2.667 1.194-2.667 2.667s1.194 2.667 2.667 2.667z"></path>
</symbol>
<symbol id="icon-youtube" viewBox="0 0 24 24">
<path fill="none" d="M22.5396 6.42C22.4208 5.94541 22.1789 5.51057 21.8382 5.15941C21.4976 4.80824 21.0703 4.55318 20.5996 4.42C18.8796 4 11.9996 4 11.9996 4C11.9996 4 5.1196 4 3.3996 4.46C2.92884 4.59318 2.50157 4.84824 2.16094 5.19941C1.82031 5.55057 1.57838 5.98541 1.4596 6.46C1.14481 8.20556 0.990831 9.97631 0.999595 11.75C0.988374 13.537 1.14236 15.3213 1.4596 17.08C1.59055 17.5398 1.8379 17.9581 2.17774 18.2945C2.51758 18.6308 2.93842 18.8738 3.3996 19C5.1196 19.46 11.9996 19.46 11.9996 19.46C11.9996 19.46 18.8796 19.46 20.5996 19C21.0703 18.8668 21.4976 18.6118 21.8382 18.2606C22.1789 17.9094 22.4208 17.4746 22.5396 17C22.852 15.2676 23.0059 13.5103 22.9996 11.75C23.0108 9.96295 22.8568 8.1787 22.5396 6.42V6.42Z" stroke="#25282B" stroke-width="2" stroke-linecap="round" stroke-linejoin="round"/>
<path fill="none" d="M9.75 15.02L15.5 11.75L9.75 8.47998V15.02Z" stroke="#25282B" stroke-width="2" stroke-linecap="round" stroke-linejoin="round"/>
</symbol>
</defs>
</svg>
