<svg width="9" height="10" viewBox="0 0 9 10" fill="none" xmlns="http://www.w3.org/2000/svg">
<path d="M7.50298 8.9856C7.56856 9.39735 7.13102 9.70378 6.7665 9.50139L4.806 8.4129C4.65505 8.32909 4.47154 8.32909 4.32059 8.4129L2.36008 9.50139C1.99556 9.70378 1.55802 9.39735 1.6236 8.9856L1.99202 6.6726C2.01695 6.51613 1.96623 6.3571 1.85532 6.24395L0.183568 4.53843C-0.101772 4.24733 0.0624205 3.75546 0.465407 3.69413L2.71428 3.35185C2.88076 3.32652 3.0233 3.21908 3.09351 3.06602L4.04554 0.99069C4.22385 0.601993 4.77615 0.601994 4.95446 0.99069L5.90649 3.06602C5.9767 3.21908 6.11924 3.32652 6.28572 3.35185L8.56433 3.69865C8.96154 3.75911 9.12883 4.23966 8.85502 4.5337L7.26116 6.24533C7.15625 6.35799 7.10909 6.5127 7.13331 6.66472L7.50298 8.9856Z" fill="#FDD22F"/>
</svg>
