<svg width="21" height="20" viewBox="0 0 21 20" fill="none" xmlns="http://www.w3.org/2000/svg">
<path d="M18 8.33337C18 14.1667 10.5 19.1667 10.5 19.1667C10.5 19.1667 3 14.1667 3 8.33337C3 6.34425 3.79018 4.4366 5.1967 3.03007C6.60322 1.62355 8.51088 0.833374 10.5 0.833374C12.4891 0.833374 14.3968 1.62355 15.8033 3.03007C17.2098 4.4366 18 6.34425 18 8.33337Z" stroke="#BFBFBF" stroke-width="1.5" stroke-linecap="round" stroke-linejoin="round"/>
<path d="M10.5 10.8334C11.8807 10.8334 13 9.71409 13 8.33337C13 6.95266 11.8807 5.83337 10.5 5.83337C9.11929 5.83337 8 6.95266 8 8.33337C8 9.71409 9.11929 10.8334 10.5 10.8334Z" stroke="#BFBFBF" stroke-width="1.5" stroke-linecap="round" stroke-linejoin="round"/>
</svg>
